<svg xmlns="http://www.w3.org/2000/svg" version="1.1" xmlns:xlink="http://www.w3.org/1999/xlink" xmlns:svgjs="http://svgjs.dev/svgjs" width="128" height="128" viewBox="0 0 128 128"><g transform="matrix(0.8046875,0,0,0.8046875,12.221578124999994,42.64426677431331)"><svg viewBox="0 0 96 40" data-background-color="#ffffff" preserveAspectRatio="xMidYMid meet" height="53" width="128" xmlns="http://www.w3.org/2000/svg" xmlns:xlink="http://www.w3.org/1999/xlink"><g id="tight-bounds" transform="matrix(1,0,0,1,0.25950000000000273,0.029557449261005786)"><svg viewBox="0 0 95.481 39.940885101478" height="39.940885101478" width="95.481"><g><svg viewBox="0 0 95.481 39.940885101478" height="39.940885101478" width="95.481"><g><svg viewBox="0 0 95.481 39.940885101478" height="39.940885101478" width="95.481"><g id="textblocktransform"><svg viewBox="0 0 95.481 39.940885101478" height="39.940885101478" width="95.481" id="textblock"><g><svg viewBox="0 0 95.481 39.940885101478" height="39.940885101478" width="95.481"><g><svg viewBox="0 0 95.481 39.940885101478" height="39.940885101478" width="95.481"><g><svg xmlns="http://www.w3.org/2000/svg" xmlns:xlink="http://www.w3.org/1999/xlink" version="1.1" x="0" y="0" viewBox="7.773 75.4408087169499 265.8735302163833 111.21819128305009" enable-background="new 0 0 283.46 283.46" xml:space="preserve" height="39.940885101478" width="95.481" class="icon-icon-0" data-fill-palette-color="accent" id="icon-0"><g fill="#ec6164" data-fill-palette-color="accent"><path fill="#ec6164" d="M271.123 143.804A3.2 3.2 0 0 0 270.988 143.091C269.992 139.882 268.361 135.585 266.267 133.345 260.611 127.3 248.201 124.736 235.06 122.022 229.408 120.855 223.564 119.648 218.439 118.172 215.269 117.26 209.31 115.222 201.865 112.569L201.879 110.525A3.158 3.158 0 0 0 196.973 107.878L194.114 109.781C191.403 108.798 188.577 107.767 185.686 106.706L185.741 105.075A3.157 3.157 0 0 0 180.426 102.665L178.813 104.176C176.575 103.351 174.321 102.514 172.065 101.677L172.147 99.662A3.156 3.156 0 0 0 166.919 97.154L164.821 98.979C162.27 98.027 159.749 97.084 157.284 96.161L157.294 93.849A3.156 3.156 0 0 0 152.065 91.455L149.858 93.372C147.309 92.414 144.87 91.496 142.579 90.631L142.655 88.029A3.156 3.156 0 0 0 137.749 85.309L134.403 87.54C128.621 85.35 124.82 83.902 124.225 83.676L106.209 75.71A3.16 3.16 0 0 0 103.263 75.918C101.544 76.989 86.435 86.7 85.465 97.655 85.234 100.269 85.831 102.756 87.201 105.009 76.829 109.934 65.515 113.784 55.484 113.784 47.607 113.784 41.717 112.393 37.588 110.449 39.112 108.073 40.049 104.746 39.079 100.447 36.928 90.922 24.25 86.002 16.467 86.797 11.187 87.338 7.856 90.479 7.773 94.996V95.054C7.773 98.761 10.078 104.283 16.43 104.299 19.686 104.309 21.508 104.498 22.673 104.985 20.085 111.696 14.971 126.97 16.832 138.752 18.515 149.407 22.344 157.574 24.222 161.102A3.1 3.1 0 0 0 24.166 162.86C23.837 164.34 23.565 166.387 23.565 169.107 23.565 170.274 23.543 171.326 23.521 172.344 23.428 176.705 23.354 180.151 25.82 182.67 28.656 185.566 33.729 186.056 44.027 186.056 46.995 186.056 52.945 186.12 61.18 186.209 78.351 186.393 103.147 186.659 127.669 186.659 162.827 186.659 197.417 186.111 208.151 183.989 225.493 180.561 254.212 171.31 265.755 167.493 269.493 166.256 272.54 162.474 273.167 158.295 274.216 151.244 273.548 146.484 271.123 143.804M261.656 137.658C262.279 138.325 263.06 139.813 263.828 141.744 263.209 141.872 262.551 142.062 261.849 142.326 259.49 143.211 255.228 144.409 250.294 145.796 232.243 150.869 204.962 158.535 197.368 170.137A160 160 0 0 0 195.056 173.788C193.23 173.971 191.423 174.129 189.634 174.267 192.605 169.329 195.564 164.816 198.95 161.49 204.466 156.074 214.673 151.955 223.679 148.321 234.386 144.002 241.458 141.147 242.019 136.1 242.4 132.686 239.021 130.261 231.98 128.894L219.494 126.3C220.101 125.836 220.492 125.487 220.682 125.308 224.93 126.375 229.412 127.301 233.786 128.205 245.38 130.602 257.371 133.078 261.656 137.658M156.843 127.816L151.948 135.811A120 120 0 0 0 142.27 132.943 144 144 0 0 0 130.706 130.553L138.475 122.268A487 487 0 0 0 156.843 127.816M210.791 130.874C210.986 130.959 211.191 131.025 211.406 131.07L230.717 135.082C230.731 135.085 230.746 135.087 230.76 135.091 232.114 135.353 233.627 135.789 234.731 136.208 234.106 136.664 233.124 137.276 231.586 138.05 228.844 139.43 225.188 140.905 221.318 142.466 211.765 146.32 200.939 150.689 194.527 156.986 192.841 158.64 191.289 160.496 189.804 162.495 183.335 153.157 174.2 145.711 162.615 140.156L168.318 130.837 169.172 131.047C177.826 133.148 185.248 133.955 191.545 133.955 199.835 133.954 206.167 132.555 210.791 130.874M29.829 172.48C29.851 171.478 29.875 170.341 29.875 169.108 29.875 167.521 29.985 166.277 30.126 165.324 40.635 165.648 76.444 167.025 96.03 171.192 97.669 171.54 99.371 171.91 101.136 172.292 105.673 173.275 110.696 174.363 116.161 175.432H29.801C29.785 174.556 29.807 173.546 29.829 172.48M130.093 171.526C119.818 169.877 110.605 167.883 102.473 166.122 101.013 165.806 99.597 165.499 98.223 165.204L109.624 153.044C118.78 156.776 126.238 161.474 132.75 167.186zM160.242 174.707C156.855 170.448 153.224 166.303 148.939 162.503L155.919 151.097C165.806 157.133 173.292 165.602 178.636 174.862 172.255 175.053 166.125 174.981 160.242 174.707M138.873 143.973A63 63 0 0 1 145.654 146.097L139.787 155.686A65 65 0 0 0 135.67 153.348C130.59 150.707 123.92 148.174 116.362 145.855L121.261 140.629C127.786 141.592 133.896 142.718 138.873 143.973M103.991 142.433C95.564 140.331 86.591 138.506 77.804 137.071 85.291 137.038 96.199 137.697 107.326 138.876zM97.806 149.031L84.788 162.918C70.209 160.97 52.816 159.932 40.992 159.407 36.567 158.374 24.453 154.073 23.843 137.897A45 45 0 0 1 23.888 133.396C34.679 137.479 50.18 141.461 72.453 144.182 82.042 145.353 90.408 146.964 97.806 149.031M187.583 114.131L185.382 115.596 185.458 113.354zM173.656 109.009L171.697 110.845 171.797 108.32zM159.398 103.702L157.248 105.574 157.258 102.902zM144.435 98.085L142.306 99.934 142.384 97.313zM118.532 101.914A3.157 3.157 0 0 0 122.909 102.789L135.199 94.599 136.136 94.953 135.787 106.948A3.156 3.156 0 0 0 141.013 109.423L150.953 100.787 150.908 112.519A3.159 3.159 0 0 0 156.139 114.912L165.543 106.725 165.076 118.29A3.16 3.16 0 0 0 166.918 121.288 3.16 3.16 0 0 0 170.391 120.72L179.172 112.494 178.865 121.52A3.158 3.158 0 0 0 183.769 124.255L194.958 116.806 195.524 117.009 195.491 122.277A3.16 3.16 0 0 0 198.63 125.454H198.65A3.157 3.157 0 0 0 201.806 122.316L201.826 119.258C206.172 120.795 209.945 122.095 212.869 123.049 211.213 123.946 208.949 124.951 206.004 125.789 199.34 127.686 187.797 129.072 170.662 124.911 142.642 118.107 113.968 107.143 104.043 103.206 113.36 97.704 120.574 92.43 123.547 90.179 124.595 90.577 126.09 91.146 127.942 91.848L119.408 97.536A3.157 3.157 0 0 0 118.532 101.914M91.751 98.22C92.276 92.241 100.678 85.308 105.227 82.183L116.792 87.296C111.851 90.846 103.075 96.802 92.869 102.17 91.986 100.938 91.626 99.652 91.751 98.22M97.17 107.078C97.409 107.278 97.682 107.445 97.984 107.571 98.188 107.656 110.005 112.543 126.618 118.298L116.772 128.801C101.864 127.465 87.602 127.738 76.847 127.946 75.358 127.975 73.926 128.003 72.557 128.026 57.099 128.278 40.462 125.436 27.253 122.384 31.134 117.138 37.248 117.548 39.936 118.038 44.196 119.317 49.353 120.1 55.481 120.1 69.093 120.101 84.393 113.923 97.17 107.078M14.084 95.071C14.096 94.57 14.202 93.378 17.106 93.08 23.01 92.475 31.737 96.615 32.917 101.839 33.447 104.186 33.024 105.817 32.374 106.915 31.551 106.082 30.943 105.234 30.54 104.414A7.4 7.4 0 0 0 29.552 102.871C26.971 99.117 23.659 98.006 16.444 97.987 14.455 97.982 14.111 96.145 14.084 95.071M266.917 157.363C266.642 159.189 265.261 161.007 263.767 161.501 252.335 165.282 223.915 174.439 206.921 177.798 205.13 178.152 202.595 178.459 199.435 178.727A170 170 0 0 1 202.654 173.595C208.949 163.975 235.9 156.401 252.002 151.875 257.283 150.391 261.455 149.218 264.066 148.238 264.834 147.951 265.431 147.837 265.834 147.837 266.084 147.837 266.26 147.882 266.352 147.956 266.96 148.449 267.861 151.048 266.917 157.363" data-fill-palette-color="accent"></path></g></svg></g></svg></g></svg></g></svg></g></svg></g></svg></g><defs></defs></svg><rect width="95.481" height="39.940885101478" fill="none" stroke="none" visibility="hidden"></rect></g></svg></g></svg>